PathFileType	4	(X/Y/Z)	C:\Users\Basilio\Documents\Thesis Gigler\squatting_fais\c3dfiles\041\SLS_pre_front5\markers_experimental.trc
DataRate	CameraRate	NumFrames	NumMarkers	Units	OrigDataRate	OrigDataStartFrame	OrigNumFrames
200.000000	200.000000	4	62	mm	200.000000	161	1289
Frame#	Time	FHD			LBHD			RBHD			C7			T10			CLAV			LSHO			LUUPA			LMUPA			LDUPA			LLEP			LMEP			LRAD			LUL			LRFIN			RSHO			RUPA1			RMUPA			RDUPA			RLEP			RMEP			RRAD			RUL			RUFIN			LASI			RASI			USACR			LSACR			RSACR			LTHI1			LTHI2			LTHI3			LTHI4			LLFC			LMFC			LTIB1			LTIB2			LTIB3			LTIB4			LLMAL			LMMAL			LHEE			LMT1			LMT2			LMT5			RTHI			RTHI2			RTHI3			RTHI4			RLFC			RMFC			RTIB1			RTIB2			RTIB3			RTIB4			RLMAL			RMMAL			RHEE			RMT1			RMT2			RMT5			*61			
		X1	Y1	Z1	X2	Y2	Z2	X3	Y3	Z3	X4	Y4	Z4	X5	Y5	Z5	X6	Y6	Z6	X7	Y7	Z7	X8	Y8	Z8	X9	Y9	Z9	X10	Y10	Z10	X11	Y11	Z11	X12	Y12	Z12	X13	Y13	Z13	X14	Y14	Z14	X15	Y15	Z15	X16	Y16	Z16	X17	Y17	Z17	X18	Y18	Z18	X19	Y19	Z19	X20	Y20	Z20	X21	Y21	Z21	X22	Y22	Z22	X23	Y23	Z23	X24	Y24	Z24	X25	Y25	Z25	X26	Y26	Z26	X27	Y27	Z27	X28	Y28	Z28	X29	Y29	Z29	X30	Y30	Z30	X31	Y31	Z31	X32	Y32	Z32	X33	Y33	Z33	X34	Y34	Z34	X35	Y35	Z35	X36	Y36	Z36	X37	Y37	Z37	X38	Y38	Z38	X39	Y39	Z39	X40	Y40	Z40	X41	Y41	Z41	X42	Y42	Z42	X43	Y43	Z43	X44	Y44	Z44	X45	Y45	Z45	X46	Y46	Z46	X47	Y47	Z47	X48	Y48	Z48	X49	Y49	Z49	X50	Y50	Z50	X51	Y51	Z51	X52	Y52	Z52	X53	Y53	Z53	X54	Y54	Z54	X55	Y55	Z55	X56	Y56	Z56	X57	Y57	Z57	X58	Y58	Z58	X59	Y59	Z59	X60	Y60	Z60	X61	Y61	Z61	X62	Y62	Z62	

162	0.805	-186.634017944336	1757.753784179688	-1006.417602539063	-373.2380371093751	1717.891845703125	-1078.443115234375	-349.4980468750001	1715.413818359375	-926.5192871093752	-422.6071777343751	1555.196044921875	-1014.671630859375	-429.6670837402345	1235.547485351563	-1000.716796875	-262.0240478515626	1500.231567382813	-1023.128784179688	-356.8341369628907	1542.653930664063	-1186.846069335938	-342.4089355468751	1377.838989257813	-1304.087280273438	-295.1500244140626	1364.80615234375	-1310.18115234375	-326.4126892089844	1320.20849609375	-1339.671020507813	-309.7642822265626	1278.11181640625	-1357.033447265625	-296.1404724121094	1224.607543945313	-1290.3291015625	-110.7774734497071	1098.1474609375	-1425.324096679688	-171.7144012451172	1080.856811523438	-1463.592407226563	-66.23953247070314	1065.555908203125	-1479.560180664063	-327.5692749023438	1548.051391601563	-855.0261840820315	-308.4475708007813	1351.643798828125	-739.4340820312501	-259.3718261718751	1359.335571289063	-742.0605468750001	-259.9703979492188	1305.464965820313	-717.7418823242189	-235.8694305419922	1268.80859375	-707.1649780273439	-257.5783691406251	1222.52197265625	-780.5158691406252	-41.71082305908204	1086.628662109375	-739.2523193359376	-87.36852264404298	1061.47509765625	-682.1708374023439	17.45417213439942	1041.614868164063	-715.7487182617189	-247.5494384765626	1057.730834960938	-1113.085815429688	-249.9854888916016	1055.23876953125	-884.7813720703127	-430.3749084472657	1121.748168945313	-1000.755798339844	-443.9604797363282	1094.939086914063	-1027.512329101563	-444.9620971679689	1095.351196289063	-973.0599365234377	-346.7885437011719	842.445739746094	-1172.577026367188	-305.8800354003907	768.3818969726565	-1163.930908203125	-258.8557434082032	775.9210205078127	-1154.579223632813	-329.3065490722657	713.9403686523439	-1154.166015625	-302.0068054199219	535.6306152343751	-1130.562622070313	-303.4264526367188	522.3505249023439	-1010.961547851563	-290.4082031250001	344.5119018554688	-1067.049926757813	-337.5549011230469	303.2455139160157	-1131.218872070313	-301.9844970703126	296.7836914062501	-1102.731811523438	-314.4440307617188	221.6656188964844	-1067.850219726563	-381.3565673828126	133.2212219238282	-1105.554077148438	-344.5253906250001	137.7470703125	-1023.713500976563	-447.9261474609376	117.5345993041992	-1063.128295898438	-241.0548095703126	62.91407394409181	-1039.67041015625	-235.061508178711	58.09108734130861	-1085.654663085938	-284.7482910156251	44.06185913085938	-1137.1142578125	-339.0314331054688	793.5614013671877	-799.953552246094	-296.0394897460938	743.5391235351564	-792.4456176757815	-263.1390686035157	747.8146362304689	-797.6629028320315	-315.5094299316407	661.3226318359376	-801.5806884765627	-303.2814941406251	541.9384765625001	-789.6723632812502	-289.8760070800782	509.5685119628907	-904.5911865234377	-289.7672729492188	372.0525512695313	-780.338806152344	-381.1612854003907	310.2055053710938	-754.2385864257814	-336.0801696777344	301.0519714355469	-756.2705078125001	-321.4329223632813	247.3690185546876	-780.0401611328127	-394.3458251953126	143.3187103271485	-751.4661254882814	-367.2532958984376	148.4683532714844	-831.343688964844	-460.8873291015626	123.1442413330078	-794.9515380859377	-255.6134948730469	58.64963150024415	-815.636169433594	-248.7102813720704	59.30240631103517	-762.9573974609376	-293.7429504394532	52.28569412231447	-712.8381958007814	-4216.737792968751	853.1558837890627	-3944.646728515626	
163	0.8100000000000001	-187.7526550292969	1758.171997070313	-1007.371826171875	-374.0997924804688	1717.62939453125	-1079.3984375	-350.3265686035157	1715.314331054688	-927.5920410156252	-423.2111206054689	1554.886352539063	-1015.777770996094	-429.9003295898439	1235.333740234375	-1001.493835449219	-262.4418334960938	1500.366821289063	-1024.156494140625	-357.5766296386719	1542.57421875	-1187.80224609375	-341.9531860351563	1378.6669921875	-1305.618041992188	-294.4818420410157	1365.982177734375	-1311.786376953125	-325.4851074218751	1321.30615234375	-1341.41748046875	-308.3461914062501	1279.355346679688	-1359.027587890625	-294.4965515136719	1225.60888671875	-1292.70849609375	-107.6139221191407	1101.191772460938	-1427.864868164063	-168.5197296142578	1083.685791015625	-1466.249755859375	-63.08137512207033	1069.410034179688	-1482.117553710938	-328.0054016113282	1548.192749023438	-856.2429199218752	-307.2754516601563	1352.194458007813	-740.3674316406251	-257.8804321289063	1360.294067382813	-743.5992431640626	-258.1729125976563	1306.730834960938	-718.5617675781251	-233.8581848144532	1270.3359375	-707.6941528320314	-254.9850006103516	1223.672119140625	-781.1903076171877	-38.6997413635254	1089.864379882813	-740.2283325195314	-83.2280960083008	1064.548217773438	-683.0168457031251	22.06180000305176	1045.631591796875	-716.8440551757814	-246.9971618652344	1057.453857421875	-1113.743896484375	-250.0364227294922	1055.1767578125	-885.406188964844	-430.4242553710939	1121.618041992188	-1001.462585449219	-444.0884094238282	1094.823364257813	-1028.167724609375	-444.7706604003907	1095.211303710938	-973.8448486328127	-346.7504882812501	842.244812011719	-1173.168090820313	-305.7628784179688	768.2187500000002	-1164.559448242188	-258.7630004882813	775.7791748046877	-1155.25732421875	-329.2527465820313	713.7683105468751	-1154.530395507813	-301.7949829101563	535.4835815429689	-1130.921264648438	-303.2259521484376	522.2985839843751	-1011.2529296875	-290.2705383300782	344.4852905273438	-1067.329711914063	-337.4299926757813	303.1162414550782	-1131.254760742188	-301.9505615234376	296.6975402832032	-1102.805297851563	-314.3422241210938	221.5751647949219	-1067.964477539063	-381.3808898925782	133.200424194336	-1105.56298828125	-344.5637207031251	137.756088256836	-1023.756408691406	-448.0271301269532	117.7267379760742	-1063.251098632813	-241.0543365478516	62.90761184692384	-1039.66748046875	-235.0570526123047	58.04409027099611	-1085.608032226563	-284.6758422851563	44.08277893066407	-1137.146850585938	-338.7922058105469	793.5819091796877	-800.4927978515627	-295.5476074218751	743.4550170898439	-793.4468994140627	-262.7916564941407	747.8973999023439	-798.1452636718752	-314.8791198730469	661.2705688476564	-802.1639404296877	-302.7965698242188	541.9703979492189	-790.276306152344	-289.3690490722657	509.5692443847657	-905.2319946289065	-289.5021972656251	372.1163940429688	-780.7071533203127	-380.7770690917969	310.3852844238282	-754.7388305664064	-335.7151184082032	301.1422424316407	-756.7832641601564	-321.1365051269532	247.5074768066407	-780.421569824219	-394.1515197753907	143.5090484619141	-751.6860351562501	-367.0302124023438	148.5560760498047	-831.5205688476565	-460.9157104492189	123.2176589965821	-795.019714355469	-255.6511840820313	58.64250564575197	-815.7078857421877	-248.6791534423829	59.39551544189455	-762.9705810546876	-293.6282348632813	52.56392288208009	-713.0629882812501	-4216.909667968751	853.0930786132815	-3944.547851562501	
164	0.8150000000000001	-189.4127502441407	1758.663940429688	-1008.53759765625	-375.3133239746094	1717.435791015625	-1080.556396484375	-351.5131835937501	1715.28955078125	-928.9534912109377	-423.7332458496095	1554.627685546875	-1016.737426757813	-430.0030212402345	1235.136352539063	-1002.35791015625	-263.1835327148438	1500.348266601563	-1025.23046875	-358.3119201660157	1542.503662109375	-1188.717529296875	-341.4432373046876	1379.314331054688	-1307.03857421875	-294.0276489257813	1367.054443359375	-1313.28515625	-324.6405639648438	1322.30224609375	-1343.159545898438	-307.0902099609376	1280.750244140625	-1361.005615234375	-292.3555908203126	1226.678955078125	-1294.947265625	-104.4815979003907	1104.260375976563	-1430.1318359375	-165.2467651367188	1086.61767578125	-1468.993408203125	-59.75825881958009	1073.4169921875	-1484.74658203125	-328.5057373046876	1548.236938476563	-857.4013671875002	-305.9917602539063	1353.031372070313	-741.1536254882814	-256.9501342773438	1361.48388671875	-744.4953002929689	-256.4467773437501	1307.888305664063	-719.6245727539064	-231.4651794433594	1271.643432617188	-708.8007812500001	-252.5166168212891	1224.768676757813	-781.8233642578127	-34.38506698608399	1093.16259765625	-741.0428466796876	-78.6732635498047	1067.414916992188	-683.8591918945314	26.50028800964356	1049.652221679688	-717.9036865234376	-247.5458526611329	1057.475708007813	-1114.57568359375	-250.0197906494141	1055.14404296875	-886.212097167969	-430.4852294921876	1121.488159179688	-1002.250122070313	-444.1011657714845	1094.641723632813	-1028.932006835938	-444.794891357422	1095.057373046875	-974.5493774414065	-346.6920776367188	841.9500732421877	-1173.707275390625	-305.7592163085938	768.1258544921877	-1165.058471679688	-258.6914367675782	775.6197509765627	-1155.721923828125	-329.2255859375001	713.5511474609376	-1155.14208984375	-301.4420776367188	535.3850097656251	-1131.370849609375	-302.9714050292969	522.2050781250001	-1011.644348144531	-290.2214355468751	344.4029846191407	-1067.549682617188	-337.2990112304688	303.0081176757813	-1131.463256835938	-301.9040832519532	296.5762634277344	-1102.895141601563	-314.3051452636719	221.4380798339844	-1067.960083007813	-381.4036560058594	133.1494445800782	-1105.61865234375	-344.5520019531251	137.7212982177735	-1023.798278808594	-448.0098571777345	117.5976867675782	-1063.174560546875	-240.7372589111329	62.75385665893556	-1039.741088867188	-235.0872955322266	58.02309799194337	-1085.594970703125	-284.5894775390626	43.97103118896485	-1137.183349609375	-338.4606628417969	793.5664062500002	-800.9302978515627	-295.1928710937501	743.6484375000001	-793.648620605469	-262.4328613281251	747.9019775390626	-798.7444458007815	-314.1385192871094	661.2823486328126	-802.782165527344	-302.1428222656251	542.1572265625001	-790.9113769531252	-288.8489990234376	509.5063476562501	-905.7280273437502	-289.3413085937501	372.3666992187501	-780.9287109375002	-380.4754638671876	310.6037292480469	-755.1239624023439	-335.5007629394532	301.3215332031251	-757.1908569335939	-320.8318481445313	247.5871887207032	-780.7988281250002	-394.1007690429689	143.7311096191407	-751.8752441406251	-366.9115295410157	148.6396942138672	-831.7590332031252	-460.8298950195314	123.162841796875	-795.1419677734377	-255.6134185791016	58.63278198242189	-815.726013183594	-248.6728210449219	59.39720916748048	-763.0509643554689	-293.5477905273438	52.7474822998047	-713.1525878906251	-4216.826660156251	853.0820922851565	-3944.697265625001	
165	0.8200000000000001	-190.0028381347657	1758.623291015625	-1009.627136230469	-376.3106994628907	1717.179565429688	-1081.53564453125	-352.5360412597657	1715.11376953125	-929.656433105469	-424.4359130859376	1554.388671875	-1017.770263671875	-430.2102050781251	1234.797607421875	-1003.1767578125	-263.7156982421876	1500.32080078125	-1026.299926757813	-358.8494262695313	1542.334594726563	-1189.667724609375	-340.9207153320313	1380.020385742188	-1308.489624023438	-293.4038085937501	1368.22412109375	-1314.883544921875	-323.5439453125001	1323.364135742188	-1344.919677734375	-305.6893920898438	1281.888916015625	-1362.976440429688	-290.8400878906251	1227.810180664063	-1297.265014648438	-101.6283874511719	1107.681640625	-1432.8876953125	-161.95654296875	1089.570556640625	-1471.654907226563	-56.19742584228517	1077.436889648438	-1487.309326171875	-329.1309814453126	1548.353759765625	-858.595397949219	-304.5957946777344	1353.629760742188	-742.0801391601564	-255.5707702636719	1362.671142578125	-745.7338256835939	-254.5274353027344	1309.261352539063	-720.3947143554689	-229.3387298583985	1273.212280273438	-709.5180664062501	-249.9536743164063	1225.947998046875	-782.5928344726565	-30.75183868408204	1096.529296875	-742.1311035156251	-74.3021926879883	1070.5419921875	-684.6854248046876	30.93971061706544	1053.777099609375	-718.8300781250001	-247.5441284179688	1057.422119140625	-1115.13623046875	-249.8207550048829	1055.217651367188	-887.3599853515627	-430.3731384277345	1121.247436523438	-1002.861877441406	-444.0490722656251	1094.461059570313	-1029.641357421875	-444.7889404296876	1094.917846679688	-975.1423950195315	-346.6421508789063	841.807556152344	-1174.228149414063	-305.6995239257813	768.0375976562502	-1165.533325195313	-258.6932678222657	775.5030517578127	-1156.123413085938	-329.1236572265626	713.3663940429689	-1155.664306640625	-301.1188964843751	535.2334594726564	-1131.743286132813	-302.9494934082032	522.0647583007814	-1012.269287109375	-290.2039794921876	344.2877197265626	-1067.810791015625	-337.1505126953126	302.9583435058594	-1131.5986328125	-301.7564086914063	296.5220642089844	-1103.039916992188	-314.3136901855469	221.3382110595704	-1068.092407226563	-381.4175720214844	133.0846862792969	-1105.640625	-344.5646057128907	137.7288513183594	-1023.835571289063	-447.9747619628907	117.5289077758789	-1063.187255859375	-241.0696411132813	62.97915267944337	-1039.684204101563	-235.0905914306641	58.04061508178712	-1085.697021484375	-284.6470947265626	44.15188598632813	-1137.124755859375	-337.9607543945313	793.4276123046877	-801.5474243164065	-294.5795288085938	743.6798706054689	-794.3757324218752	-261.6776733398438	748.0089721679689	-799.6495361328127	-313.5082092285157	661.3457641601564	-803.288513183594	-301.2741394042969	542.1110839843751	-791.5545043945315	-288.3025207519532	509.4651184082032	-906.338317871094	-288.8649902343751	372.4926452636719	-781.4932250976565	-380.1357727050782	310.9876098632813	-755.5670166015626	-335.1577453613282	301.6559143066407	-757.5358276367189	-320.6616210937501	247.8508911132813	-781.0899658203127	-393.936981201172	143.9808349609375	-752.1499023437501	-366.6660766601563	148.7335052490235	-831.955505371094	-460.9102783203126	123.5665359497071	-795.453796386719	-256.1957397460938	58.77474975585939	-815.859558105469	-247.6402893066407	60.46164703369142	-763.9164428710939	-293.5125122070313	52.80405426025392	-713.2584838867189	-4216.762207031251	853.1093750000002	-3944.607421875001	
